<?xml version="1.0" standalone="no"?>
<!DOCTYPE svg PUBLIC "-//W3C//DTD SVG 20010904//EN"
 "http://www.w3.org/TR/2001/REC-SVG-20010904/DTD/svg10.dtd">
<svg version="1.0" xmlns="http://www.w3.org/2000/svg"
 width="1024.000000pt" height="1024.000000pt" viewBox="0 0 1024.000000 1024.000000"
 preserveAspectRatio="xMidYMid meet">

<g transform="translate(0.000000,1024.000000) scale(0.100000,-0.100000)"
fill="#000000" stroke="none">
<path d="M6050 8355 c-169 -24 -328 -86 -493 -192 l-72 -47 115 -17 c63 -10
121 -18 128 -18 32 -2 2 -22 -115 -79 -137 -65 -268 -112 -314 -112 -16 0 -29
-4 -29 -10 0 -23 118 -80 166 -80 37 0 28 -13 -29 -42 -74 -38 -103 -48 -181
-62 l-69 -11 58 -39 c48 -31 70 -39 119 -43 93 -7 166 29 311 157 131 115 305
221 440 268 141 50 223 63 415 67 193 5 194 3 18 -31 -274 -52 -503 -157 -763
-348 -170 -125 -212 -145 -368 -172 -104 -18 -160 -39 -267 -102 -278 -164
-402 -197 -900 -242 -323 -30 -448 -58 -606 -138 -56 -28 -161 -103 -176 -126
-4 -7 -19 -5 -42 6 -19 10 -72 25 -118 34 -246 50 -512 -52 -652 -250 -58 -81
-87 -141 -147 -299 -62 -164 -118 -264 -189 -336 -63 -64 -170 -124 -256 -145
l-59 -14 37 -16 c75 -32 154 -47 253 -47 120 0 190 16 304 72 174 85 265 216
357 508 69 220 124 305 224 350 44 20 113 27 157 15 22 -6 22 -6 -8 -51 -42
-60 -83 -154 -103 -234 -18 -74 -20 -169 -6 -314 21 -207 -42 -328 -213 -409
-40 -18 -102 -48 -140 -66 -84 -39 -97 -62 -131 -232 -45 -219 -119 -405 -201
-500 -31 -38 -45 -74 -45 -124 0 -35 -29 -102 -47 -109 -11 -3 -26 5 -44 25
-48 51 -102 33 -135 -45 -29 -70 -102 -335 -92 -335 29 0 161 46 219 76 66 35
279 204 312 249 10 14 47 93 82 175 100 235 229 491 267 527 39 37 113 79 258
147 241 112 430 208 499 255 101 67 193 160 260 261 45 69 196 374 257 519 8
19 16 32 18 30 3 -3 -41 -179 -90 -356 -6 -23 -5 -23 98 -23 57 0 156 -7 219
-15 297 -41 354 -46 499 -47 85 0 187 4 225 11 76 13 287 61 294 67 3 2 -5 14
-16 27 -69 75 -105 219 -87 351 l7 47 36 -108 c54 -160 106 -241 190 -295 37
-23 56 -28 109 -28 68 0 119 17 282 93 195 90 418 165 454 151 30 -11 24 -30
-68 -253 -30 -73 -62 -141 -71 -152 -31 -33 -68 -33 -127 0 -35 20 -69 31 -93
31 -33 0 -45 -7 -84 -48 -62 -64 -176 -253 -160 -263 24 -15 227 -22 281 -9
60 14 291 130 341 171 22 18 42 51 60 96 15 37 63 159 107 271 90 227 98 273
58 332 -31 44 -64 67 -120 82 -47 12 -95 9 -469 -29 l-56 -5 -5 90 c-5 117
-44 200 -132 286 -64 63 -56 66 33 13 68 -41 159 -139 196 -214 l30 -58 6 125
c3 69 14 154 23 190 38 140 139 290 245 362 47 33 179 108 190 108 3 0 5 -31
3 -69 -4 -86 22 -155 80 -206 41 -38 51 -43 165 -84 62 -23 86 -39 176 -122
82 -77 106 -106 116 -139 32 -107 152 -139 240 -64 45 37 85 126 79 172 -3 21
-57 166 -119 322 -120 301 -168 388 -278 511 -48 54 -50 57 -32 73 10 9 31 40
47 69 23 43 29 67 32 140 3 51 1 87 -5 87 -12 0 -144 -100 -220 -167 l-59 -51
-72 48 c-241 158 -519 217 -822 175z m1177 -617 c22 -13 36 -32 43 -56 14 -52
-1 -61 -45 -28 -29 23 -75 90 -75 111 0 9 41 -5 77 -27z"/>
<path d="M6940 5750 l0 -270 -272 0 c-490 0 -843 -33 -1248 -115 -379 -77
-818 -220 -1155 -377 -285 -133 -614 -336 -811 -502 -97 -82 -304 -291 -304
-308 0 -4 426 -7 948 -7 602 1 901 5 822 10 -356 23 -547 44 -642 70 -49 13
-95 53 -103 89 -9 42 41 145 102 211 302 324 951 594 1678 698 237 34 339 42
668 48 l317 6 0 -457 0 -456 -140 0 -140 0 0 -110 0 -110 430 0 431 0 -3 108
-3 107 -142 3 -143 3 0 814 0 815 -145 0 -145 0 0 -270z"/>
<path d="M1710 3294 c0 -327 -2 -380 -16 -410 -20 -42 -59 -64 -114 -64 -40 0
-112 29 -125 50 -4 6 -29 -21 -56 -61 l-50 -72 22 -23 c42 -44 107 -67 210
-72 74 -3 108 -1 147 12 67 23 134 83 161 146 21 49 22 62 22 458 l0 407 -101
3 -100 3 0 -377z"/>
<path d="M5020 3159 l0 -509 105 0 105 0 -2 508 -3 507 -102 2 -103 1 0 -509z"/>
<path d="M5960 3160 l0 -510 330 0 330 0 0 95 0 95 -225 0 -225 0 0 110 0 110
205 0 205 0 0 90 0 90 -205 0 -205 0 0 120 0 120 225 0 226 0 -3 93 -3 92
-327 3 -328 2 0 -510z"/>
<path d="M5460 3485 l0 -95 -70 0 -70 0 0 -82 0 -83 65 0 65 0 3 -215 c4 -241
9 -266 72 -318 60 -49 142 -62 264 -44 l44 7 1 83 1 82 -72 0 c-65 0 -73 2
-92 26 -19 25 -21 40 -21 206 l0 179 85 -3 85 -3 0 83 0 82 -85 0 -85 0 0 95
0 95 -95 0 -95 0 0 -95z"/>
<path d="M3180 3398 c-38 -11 -86 -42 -112 -73 -17 -19 -17 -19 -18 23 l0 42
-90 0 -90 0 0 -370 0 -371 95 3 95 3 3 245 c2 212 4 249 20 277 49 91 201 80
234 -17 8 -23 12 -116 12 -272 l1 -238 95 0 95 0 0 223 c0 122 5 240 10 261 5
22 23 53 40 70 27 28 37 31 89 31 45 0 64 -5 81 -20 46 -40 50 -69 50 -325 l0
-240 96 0 95 0 -3 288 -3 287 -27 52 c-15 28 -43 64 -62 78 -103 78 -281 70
-367 -16 l-37 -37 -33 34 c-60 62 -176 89 -269 62z"/>
<path d="M4452 3396 c-50 -16 -92 -42 -110 -68 -21 -29 -32 -21 -32 22 l0 40
-95 0 -95 0 0 -525 0 -525 100 0 100 0 0 190 0 190 40 -29 c53 -38 125 -55
215 -49 174 11 294 133 314 319 20 189 -58 348 -203 415 -68 31 -172 40 -234
20z m136 -175 c47 -24 66 -45 91 -101 31 -67 28 -145 -7 -211 -36 -70 -84 -99
-165 -99 -64 0 -99 14 -138 57 -42 45 -51 72 -52 152 -1 82 18 135 65 178 49
46 141 57 206 24z"/>
<path d="M6980 3404 c-130 -24 -221 -107 -245 -221 l-7 -33 96 0 c88 0 96 2
96 19 0 23 51 68 86 77 14 4 46 4 71 1 62 -7 103 -48 110 -109 l5 -45 -123 -6
c-146 -6 -210 -23 -267 -73 -58 -49 -75 -87 -75 -159 0 -139 92 -215 262 -215
85 0 165 29 194 70 15 22 16 22 19 -16 l3 -39 91 -3 90 -3 -1 258 c-2 211 -5
268 -19 311 -36 113 -140 182 -280 187 -45 2 -92 1 -106 -1z m210 -476 c0 -85
-61 -140 -156 -142 -86 -1 -131 48 -105 112 20 48 77 68 204 71 l57 1 0 -42z"/>
<path d="M7715 3401 c-137 -37 -205 -115 -205 -236 0 -119 63 -174 248 -220
55 -14 113 -30 127 -37 56 -25 36 -101 -30 -114 -70 -13 -152 16 -162 57 -5
17 -15 19 -100 19 l-95 0 7 -37 c4 -21 13 -49 20 -63 23 -45 91 -98 146 -114
66 -20 200 -21 265 -1 120 36 191 152 164 270 -22 96 -80 139 -235 170 -113
22 -144 34 -161 60 -11 16 -12 29 -5 48 13 35 40 47 101 47 43 0 56 -5 79 -28
15 -15 30 -32 32 -39 3 -8 35 -12 94 -14 l90 -2 -3 32 c-6 74 -65 145 -151
184 -48 21 -176 32 -226 18z"/>
<path d="M2062 3103 c3 -273 4 -290 25 -328 50 -94 126 -135 247 -135 80 0
136 21 176 65 l25 27 5 -39 5 -38 93 -3 92 -3 0 371 0 370 -95 0 c-69 0 -95
-3 -95 -12 0 -7 -1 -119 -2 -248 -3 -261 -6 -273 -71 -307 -44 -23 -122 -21
-156 4 -56 42 -61 66 -61 326 l0 237 -96 0 -95 0 3 -287z"/>
<path d="M8130 3384 c0 -3 66 -173 146 -376 94 -239 143 -379 140 -393 -9 -34
-49 -89 -76 -102 -14 -7 -44 -13 -67 -13 l-43 0 0 -80 0 -80 68 0 c172 0 225
56 346 366 29 76 93 238 141 359 48 121 96 244 106 273 l18 53 -102 -3 -101
-3 -53 -140 c-29 -77 -70 -188 -90 -247 -21 -60 -41 -108 -44 -108 -3 0 -13
24 -22 53 -9 28 -49 141 -89 249 l-73 198 -102 0 c-57 0 -103 -3 -103 -6z"/>
</g>
</svg>
